<svg xmlns="http://www.w3.org/2000/svg" xmlns:xlink="http://www.w3.org/1999/xlink" version="1.1" x="0px" y="0px" viewBox="0 0 100 100" style="enable-background:new 0 0 100 100;" xml:space="preserve"><g><path d="M50.00098,79.85048c-13.22589,0-15.6937-6.63457-18.92053-18.36012c-0.22417-0.81801,0.19467-1.67536,0.97926-2.00178   c0.78459-0.32052,1.68716-0.0177,2.10796,0.72166c3.06559,5.37805,8.68945,8.34139,15.83331,8.34139   c0.9301,0,1.68322,0.75313,1.68322,1.68323s-0.75312,1.68322-1.68322,1.68322c-5.25614,0-9.82995-1.39417-13.42253-4.02125   c2.29477,6.02106,5.2935,8.58719,13.42253,8.58719c0.9301,0,1.68322,0.75313,1.68322,1.68322   C51.68421,79.09735,50.93108,79.85048,50.00098,79.85048z"/><path d="M49.99902,100c-0.37165,0-0.74722-0.12192-1.05791-0.37558c-1.87593-1.52001-4.36734-2.47371-7.25399-3.57685   c-1.37057-0.52502-2.80996-1.07561-4.29261-1.72648c-5.94241-2.5268-7.50372-8.80547-4.26311-17.21568   c0.24186-0.62531,0.83178-1.05005,1.50232-1.07758c0.65874,0.00787,1.29388,0.34608,1.5849,0.95173   c1.67929,3.4805,3.54539,5.63959,5.39968,6.24326c1.03825,0.34019,2.1237,0.19861,3.30942-0.4326   c0.44637-0.23597,0.48373-0.43261,0.49946-0.51716c0.0354-0.18484,0.11405-1.21523-1.77958-3.40381   c-0.60958-0.702-0.53289-1.76582,0.17107-2.37343c0.702-0.60957,1.76778-0.53288,2.37342,0.17108   c2.02734,2.33999,2.88272,4.43813,2.5445,6.2295c-0.16124,0.85931-0.68037,2.0529-2.23184,2.86895   c-1.99981,1.06774-3.99766,1.28995-5.93061,0.65874c-1.95065-0.63514-3.75383-2.14336-5.38592-4.49515   c-0.7374,3.53948-0.50143,7.5804,3.54145,9.30099c1.44922,0.63711,2.83749,1.16606,4.16087,1.67142   c3.02233,1.15623,5.87948,2.24954,8.17032,4.10777c0.72363,0.58598,0.83375,1.64586,0.24776,2.36752   C50.97631,99.78763,50.49061,100,49.99902,100z"/><path d="M49.99902,68.09348c-0.35985,0-0.72166-0.11404-1.02842-0.35198c-2.69395-2.0824-5.04181-3.21503-6.97673-3.36251   c-0.15731-0.0118-0.31266-0.0472-0.4621-0.10226c-2.11189-0.79245-3.29959-1.94475-3.53162-3.42347   c-0.37362-2.38522,2.00964-4.27491,2.79226-4.89629c0.72953-0.58009,1.78941-0.45424,2.36555,0.27333   c0.57812,0.72953,0.4562,1.78744-0.27333,2.36556c-1.41579,1.1228-1.54557,1.69895-1.55541,1.75204l0,0   c0.0177,0,0.23203,0.31069,1.18377,0.6961c2.5386,0.2694,5.40165,1.62423,8.51837,4.03502   c0.73543,0.56829,0.87111,1.6262,0.30086,2.36163C51.00187,67.86931,50.50241,68.09348,49.99902,68.09348z"/><path d="M27.56849,30.59358c-0.55845,0-1.08151-0.27726-1.39417-0.74034C18.17902,18.04314,17.44949,8.1955,24.00934,0.58462   c0.44047-0.50831,1.14247-0.70691,1.77368-0.50929c0.63907,0.19762,1.10118,0.75607,1.1759,1.42169   c0.80622,7.21564,3.9013,12.3302,9.46223,15.63471c0.38541,0.23007,0.66463,0.60466,0.77279,1.04218   c0.98909,3.98487,0.64301,7.08783-1.02645,9.22332C34.50785,29.51797,31.61531,30.59358,27.56849,30.59358z M24.36919,6.05509   c-2.82176,5.70251-1.46692,12.66842,4.08811,21.14943c2.47174-0.11798,4.1707-0.75017,5.05754-1.88281   c0.92223-1.17885,1.11101-3.08722,0.56239-5.67793C29.13373,16.50543,25.88134,11.94736,24.36919,6.05509z"/><path d="M50.00295,33.27671c-0.63317,0-1.24079-0.35887-1.52591-0.97041c-3.88361-8.28732-8.19981-12.32725-12.81098-12.04704   c-0.91633,0.05604-1.72845-0.64694-1.78744-1.57409c-0.05703-0.92813,0.64694-1.72747,1.57507-1.78646   c6.12725-0.37853,11.54463,4.31523,16.07124,13.98c0.39524,0.84161,0.03146,1.84447-0.81015,2.23873   C50.48471,33.22558,50.24088,33.27671,50.00295,33.27671z"/><path d="M27.28533,11.0733c-0.53682,0-1.06381-0.25563-1.39023-0.73149c-0.52699-0.76689-0.33035-1.81497,0.43457-2.34098   C33.3005,3.2176,41.29581,0.84418,50.02458,0.97101c0.92813,0.0118,1.67339,0.77574,1.65963,1.70584   c-0.0118,0.92223-0.76296,1.66159-1.68322,1.66159c-0.18681,0.0118-0.41884-0.00393-0.62924-0.00492   c-7.90289,0-14.82259,2.11091-21.13468,6.44384C27.94604,10.97695,27.61372,11.0733,27.28533,11.0733z"/><path d="M17.27841,15.56059c-1.10117,0-2.0765-0.23498-2.91811-0.70593c-0.81212-0.45424-1.10117-1.4797-0.64694-2.29182   c0.4503-0.81113,1.48069-1.10314,2.29084-0.64792c0.9242,0.51716,2.53074,0.33035,4.64263-0.5437   c0.85538-0.35592,1.8425,0.05408,2.19842,0.91338s-0.05309,1.84447-0.9124,2.1994   C20.19652,15.20172,18.64112,15.56059,17.27841,15.56059z"/><path d="M27.79463,65.23829c-0.30872,0-0.62334-0.08456-0.90257-0.2635c-7.63939-4.86679-9.10828-13.27111-4.3693-24.98584   c-2.81193-5.90996-2.68805-11.73046,0.37164-17.31105c0.44637-0.81408,1.46692-1.11297,2.2869-0.66759   c0.81408,0.44735,1.11297,1.47085,0.6666,2.28592c-2.64872,4.83042-2.64085,9.69033,0.01966,14.85897   c0.2281,0.44342,0.24973,0.96451,0.05506,1.42464c-4.4224,10.49655-3.51196,17.54603,2.7785,21.55548   c0.78459,0.49946,1.01465,1.53968,0.51519,2.32426C28.8958,64.963,28.35111,65.23829,27.79463,65.23829z"/><path d="M33.16285,86.70135c-0.17107,0-0.34412-0.02753-0.51519-0.08259c-7.27955-2.34-10.31171-10.64993-9.26953-25.40763   c0.06489-0.92813,0.8947-1.65963,1.79727-1.56131c0.92813,0.06489,1.6262,0.87111,1.56131,1.79728   c-0.90454,12.80508,1.43153,20.19475,6.94133,21.96646c0.88487,0.28513,1.37253,1.23292,1.08741,2.11779   C34.53539,86.24516,33.87468,86.70135,33.16285,86.70135z"/><path d="M21.86205,49.77073c-0.63514,0-1.24275-0.35788-1.52788-0.97139c-4.53645-9.71983-6.83515-21.63512-6.83515-35.41455   c0-0.9301,0.75312-1.68421,1.68322-1.68421s1.68322,0.75411,1.68322,1.68421c0,13.2839,2.19448,24.71939,6.52052,33.99089   c0.39328,0.84161,0.0295,1.84447-0.81408,2.23774C22.34185,49.72157,22.09998,49.77073,21.86205,49.77073z"/><path d="M50.00098,79.85048c-0.9301,0-1.68322-0.75313-1.68322-1.68323c0-0.93009,0.75312-1.68322,1.68322-1.68322   c8.0838,0,11.07073-2.56416,13.36157-8.57933c-3.58078,2.62316-8.13493,4.01339-13.36157,4.01339   c-0.9301,0-1.68322-0.75312-1.68322-1.68322s0.75312-1.68323,1.68322-1.68323c7.10651,0,12.70873-2.96334,15.77432-8.34139   c0.42277-0.73936,1.32534-1.04415,2.10796-0.72166c0.78459,0.32642,1.20343,1.18377,0.97926,2.00178   C65.63569,73.2159,63.16985,79.85048,50.00098,79.85048z"/><path d="M50.00098,100c-0.48373,0-0.9655-0.20844-1.29781-0.60958c-0.59188-0.71773-0.4916-1.77761,0.22417-2.37145   c2.26527-1.872,5.12833-2.96924,8.16049-4.1294c1.31158-0.50143,2.68805-1.02842,4.10777-1.65176   c4.09991-1.74418,4.33587-5.77723,3.58471-9.30492c-1.60653,2.34-3.39397,3.84428-5.33479,4.48532   c-1.93689,0.63908-3.94063,0.41884-5.95814-0.65874c-1.55738-0.81998-2.0824-2.02538-2.24561-2.89255   c-0.34019-1.79924,0.50339-3.88557,2.5091-6.2c0.60958-0.70396,1.67142-0.78065,2.37342-0.17108   c0.70396,0.60761,0.78065,1.67142,0.17107,2.37343c-1.44136,1.66749-1.84643,2.83553-1.74418,3.37234   c0.01573,0.09045,0.05703,0.30283,0.51519,0.54272c1.19556,0.63907,2.27707,0.78262,3.32319,0.43653   c1.84447-0.60957,3.68893-2.76473,5.3289-6.2295c0.28709-0.60564,0.82588-0.96549,1.579-0.96352   c0.67054,0.0236,1.26439,0.44244,1.51019,1.06774c3.2524,8.26668,1.65372,14.71051-4.27688,17.23338   c-1.45316,0.63907-2.87878,1.18572-4.23756,1.70485c-2.88665,1.10511-5.38199,2.06077-7.21859,3.58078   C50.76001,99.87415,50.38049,100,50.00098,100z"/><path d="M50.00295,68.09348c-0.49946,0-0.99105-0.21827-1.32338-0.64104c-0.57615-0.72953-0.45227-1.78941,0.27923-2.36359   c3.06362-2.41668,5.91291-3.77742,8.47707-4.04485c0.9655-0.38344,1.18573-0.69806,1.20932-0.73346   c-0.01966-0.00196-0.15928-0.58401-1.58687-1.71468c-0.72953-0.57812-0.85144-1.63603-0.27333-2.36556   c0.57615-0.72953,1.63603-0.85538,2.36556-0.27333c0.79049,0.62531,3.19341,2.53073,2.81192,4.91595   c-0.23597,1.47675-1.43349,2.62315-3.56112,3.40577c-0.14552,0.05506-0.29889,0.08849-0.45227,0.10029   c-1.92312,0.14748-4.31031,1.30764-6.90593,3.35268C50.73444,67.97549,50.36673,68.09348,50.00295,68.09348z"/><path d="M72.37448,30.59358c-4.03108,0-6.9197-1.07954-8.58522-3.20717c-1.67536-2.14139-2.02538-5.24139-1.04021-9.2125   c0.10815-0.43752,0.38737-0.81212,0.77279-1.04218c5.61796-3.33892,8.71304-8.44856,9.46027-15.62291   c0.07079-0.66759,0.53092-1.23096,1.17197-1.43153c0.63711-0.20057,1.3391-0.00295,1.77957,0.50733   c6.59328,7.65021,5.86375,17.49884-2.16891,29.27353C73.45206,30.31829,72.93097,30.59358,72.37448,30.59358z M65.86576,19.64476   c-0.54469,2.57694-0.35002,4.48139,0.57615,5.66711c0.89077,1.13854,2.58775,1.77368,5.0477,1.89264   c5.5747-8.44758,6.93346-15.40562,4.10188-21.12583C74.1049,11.93556,70.8466,16.48479,65.86576,19.64476z"/><path d="M49.99902,33.27671c-0.23597,0-0.47586-0.05014-0.70396-0.15535c-0.84358-0.39033-1.21326-1.39023-0.82195-2.23479   c4.46566-9.67165,9.85748-14.35558,16.01619-13.98786c0.92813,0.05899,1.6321,0.85833,1.57507,1.78646   c-0.05899,0.92715-0.86914,1.63111-1.78745,1.57409C59.62053,19.982,55.35544,24.018,51.52886,32.29844   C51.2457,32.91391,50.63612,33.27671,49.99902,33.27671z"/><path d="M72.65764,11.0733c-0.33035,0-0.66463-0.09734-0.95566-0.29987c-6.32585-4.37913-13.67226-6.51069-21.6774-6.43597   c-0.00786,0.00098-0.01573,0.00098-0.02359,0.00098c-0.92027,0-1.67142-0.73936-1.68322-1.66159   c-0.01377-0.92912,0.72953-1.69404,1.65963-1.70584c8.75237-0.09439,16.72408,2.24659,23.63985,7.03375   c0.76492,0.52896,0.95567,1.57802,0.42671,2.34294C73.71752,10.81964,73.1925,11.0733,72.65764,11.0733z"/><path d="M82.71569,15.56845c-1.3568,0-2.91222-0.35985-4.69376-1.07954c-0.86127-0.34903-1.27815-1.33026-0.9301-2.19252   c0.35001-0.86226,1.33321-1.27913,2.19251-0.9301c2.15909,0.87504,3.79119,1.0648,4.71146,0.54862   c0.81212-0.45522,1.8366-0.16321,2.29083,0.64792c0.45424,0.81212,0.16518,1.83758-0.64693,2.29182   C84.78825,15.32954,83.81883,15.56845,82.71569,15.56845z"/><path d="M72.20538,65.23829c-0.55452,0-1.09724-0.27332-1.41776-0.77279c-0.5034-0.78262-0.27726-1.8248,0.50536-2.32623   c6.29636-4.04485,7.18909-11.09433,2.72933-21.55254c-0.19663-0.46112-0.17697-0.98614,0.05309-1.43153   c2.68018-5.20501,2.70574-10.06493,0.07669-14.85897c-0.44637-0.81507-0.14748-1.83857,0.6666-2.28592   c0.81802-0.44538,1.83857-0.1465,2.2869,0.66759c3.04003,5.54716,3.14621,11.36569,0.31659,17.30712   c4.77831,11.6754,3.33105,20.07972-4.30834,24.98584C72.83265,65.15177,72.51606,65.23829,72.20538,65.23829z"/><path d="M66.78013,86.70135c-0.71183,0-1.37254-0.4562-1.60261-1.17c-0.28513-0.88487,0.20254-1.83266,1.08741-2.11779   c5.49407-1.76582,7.8498-9.15942,6.99836-21.97236c-0.06293-0.92813,0.63907-1.73042,1.56721-1.79137   c0.97533-0.08259,1.73042,0.64104,1.79137,1.56721c0.98122,14.75967-2.06863,23.0696-9.32655,25.40173   C67.12424,86.67383,66.9512,86.70135,66.78013,86.70135z"/><path d="M78.08092,49.77073c-0.2399,0-0.48569-0.05112-0.71773-0.16124c-0.84161-0.39721-1.19949-1.40006-0.80228-2.24168   c4.30637-9.10926,6.51659-20.54476,6.57362-33.9899c0.00393-0.92715,0.75706-1.67732,1.68322-1.67732   c0.00197,0,0.00394,0,0.00787,0c0.92813,0.00393,1.67929,0.76099,1.67536,1.69109   c-0.05703,13.94165-2.37736,25.85793-6.8961,35.41553C79.31778,49.41481,78.71214,49.77073,78.08092,49.77073z"/><path d="M54.68884,46.8064c-0.7079,0-1.3627-0.12388-1.94868-0.31167c-0.88487-0.28316-1.3745-1.23095-1.09134-2.11681   c0.28316-0.88487,1.22506-1.3804,2.11779-1.09036c2.5445,0.81211,4.89629-2.14827,6.42024-4.77733   c2.66642-4.44107,6.26489-6.10266,10.72465-4.95233c0.9006,0.23105,1.44136,1.14935,1.20933,2.04995   c-0.23203,0.90158-1.14837,1.43841-2.05093,1.21031c-2.95744-0.75804-5.11259,0.28906-6.98263,3.40282   C60.09443,45.38078,57.08979,46.8064,54.68884,46.8064z"/><path d="M61.91529,49.15328c-2.33213,0-4.79601-0.90847-7.3523-2.71656c-0.75903-0.53682-0.93797-1.58786-0.40114-2.34688   c0.53682-0.75903,1.58294-0.94091,2.34786-0.40213c2.45798,1.73927,4.67409,2.39997,6.58738,1.96835   c1.74615-0.39524,3.40578-1.7196,4.95135-3.94653c-2.35572-0.49651-4.73505,0.04424-7.20876,1.63111   c-0.78262,0.50339-1.8248,0.27431-2.32623-0.5093c-0.50143-0.7836-0.27333-1.8248,0.50929-2.32623   c4.09991-2.62709,8.22341-3.05084,12.26432-1.2634c0.43261,0.19172,0.76492,0.55747,0.91437,1.00679   c0.15141,0.4503,0.10422,0.94189-0.12782,1.35582c-2.33016,4.15988-5.09882,6.62867-8.23324,7.33657   C63.20918,49.08249,62.56617,49.15328,61.91529,49.15328z"/><path d="M45.2561,46.80542c-2.40096,0-5.40952-1.42661-8.41415-6.60606c-1.81497-3.10787-3.96226-4.15104-6.96886-3.3812   c-0.9006,0.2281-1.82087-0.30872-2.05094-1.21031c-0.23203-0.9006,0.30872-1.8189,1.20933-2.04995   c3.10688-0.80327,7.48405-0.58893,10.72072,4.94742c1.52985,2.63397,3.87967,5.59632,6.42417,4.78224   c0.89077-0.29103,1.83267,0.20549,2.11779,1.09036c0.28316,0.88586-0.20647,1.83365-1.09134,2.11681   C46.61684,46.68252,45.96203,46.80542,45.2561,46.80542z"/><path d="M38.06897,49.15328c-0.63514,0-1.26045-0.06686-1.8779-0.20254c-3.14621-0.69413-5.94634-3.16293-8.3178-7.33755   c-0.234-0.41393-0.28316-0.90749-0.13371-1.35976c0.14944-0.45128,0.48176-0.819,0.91633-1.0117   c4.01929-1.77958,8.26471-1.33911,12.27416,1.27028c0.77869,0.50634,1.00089,1.54951,0.49356,2.32918   c-0.50732,0.7777-1.55148,1.00187-2.33016,0.49258c-2.44421-1.59179-4.80584-2.13352-7.18909-1.63013   c1.5731,2.24168,3.25436,3.57095,5.01231,3.95833c1.90346,0.41884,4.09597-0.24285,6.51069-1.97031   c0.76099-0.53781,1.80907-0.36378,2.34983,0.39131c0.54075,0.75706,0.36575,1.80907-0.39131,2.34983   C42.85122,48.24285,40.39717,49.15328,38.06897,49.15328z"/></g><text x="0" y="115" fill="#000000" font-size="5px" font-weight="bold" font-family="'Helvetica Neue', Helvetica, Arial-Unicode, Arial, Sans-serif">Created by Grégory Montigny</text><text x="0" y="120" fill="#000000" font-size="5px" font-weight="bold" font-family="'Helvetica Neue', Helvetica, Arial-Unicode, Arial, Sans-serif">from the Noun Project</text></svg>
